# xmcd
#
# Track frame offsets:
#	150
#	15277
#	29022
#	43595
#	58920
#	71842
#	93160
#	107897
#	121040
#	132560
#
# Disc length: 1916 seconds
#
# Revision: 1
# Processed by: cddbd v1.5.2PL0 Copyright (c) Steve Scherf et al.
# Submitted via: audiograbber 1.83.01
#
DISCID=88077a0a
DTITLE=Various Artist - The 80's Country
DYEAR=1997
DGENRE=Country
TTITLE0=Sawyer Brown - Betty's Bein' Bad
TTITLE1=Alabama - Tennessee River
TTITLE2=The Forester Sisters - I Fell in Love Again Last Night
TTITLE3=Shanandoah - Mama Knows
TTITLE4=The Oak Ridge Boys - No Matter How High
TTITLE5=Restless Heart - The Bluest Eyes In Texas
TTITLE6=Highway 101 - Somewhere Tonight
TTITLE7=The Statler Brothers - More Than A Name On A Wall
TTITLE8=The Nitty Gritty Dirt Band - When It's Gone
TTITLE9=The Whites - Hangin' Around
EXTD=
EXTT0=
EXTT1=
EXTT2=
EXTT3=
EXTT4=
EXTT5=
EXTT6=
EXTT7=
EXTT8=
EXTT9=
PLAYORDER=
